# xmcd
#
# Track frame offsets: 
#        150
#        62768
#        96807
#        143985
#        202412
#        257487
#
# Disc length: 3834 seconds
#
# Revision: 1
# Processed by: cddbd v1.5.2PL0 Copyright (c) Steve Scherf et al.
# Submitted via: ExactAudioCopy v0.95b4
#
DISCID=590ef806
DTITLE=??????? - ????????????
DYEAR=1900
DGENRE=Classical
TTITLE0=????????????
TTITLE1=???????????????
TTITLE2=???????????????????
TTITLE3=???????????
TTITLE4=???????????
TTITLE5=???????????
EXTD=
EXTT0=
EXTT1=
EXTT2=
EXTT3=
EXTT4=
EXTT5=
PLAYORDER=
